<?xml version="1.0" standalone="no"?>
<!DOCTYPE svg PUBLIC "-//W3C//DTD SVG 20010904//EN"
 "http://www.w3.org/TR/2001/REC-SVG-20010904/DTD/svg10.dtd">
<svg version="1.0" xmlns="http://www.w3.org/2000/svg"
 width="95.000000pt" height="90.000000pt" viewBox="0 0 95.000000 90.000000"
 preserveAspectRatio="xMidYMid meet">

<g transform="translate(0.000000,90.000000) scale(0.100000,-0.100000)"
fill="#5f6fff" stroke="none">
<path d="M432 788 c-70 -11 -124 -39 -178 -95 -42 -45 -84 -131 -84 -174 0
-20 5 -21 109 -17 106 3 111 4 141 33 17 16 36 46 42 67 14 47 33 49 47 5 15
-44 64 -93 107 -107 39 -13 45 -34 12 -45 -13 -4 -25 -8 -28 -9 -25 -9 -52
-31 -69 -60 -18 -28 -21 -49 -21 -129 0 -95 0 -97 25 -103 14 -3 69 -4 122 -2
94 4 96 5 125 37 l30 34 -4 161 c-3 149 -5 165 -30 217 -63 136 -198 209 -346
187z"/>
<path d="M761 786 c-17 -20 -2 -48 23 -44 27 4 32 34 8 47 -15 8 -23 7 -31 -3z"/>
<path d="M160 361 c0 -98 8 -153 21 -145 5 3 6 -1 3 -9 -3 -8 7 -22 23 -33 22
-15 52 -19 140 -22 l112 -4 7 27 c4 15 4 62 1 106 -9 136 -49 169 -207 169
l-100 0 0 -89z"/>
</g>
</svg>
